<svg width="270" height="154" viewBox="0 0 270 154" fill="none" xmlns="http://www.w3.org/2000/svg">
<g clip-path="url(#clip0_993_22973)">
<path d="M17.5915 94.6213L59.0627 79.5291C63.3885 77.9539 70.4698 77.9539 74.7956 79.5291L190.129 121.506H207.283V128.867C207.283 129.902 206.199 130.943 204.036 131.728L148.658 151.883C144.332 153.458 137.25 153.458 132.925 151.883L3.68428 104.848C1.52137 104.063 0.4375 103.022 0.4375 101.987V94.6261H17.5915V94.6213Z" fill="#F4F4F7"/>
<path d="M8.06641 94.625L14.6515 108.845L33.5108 115.71L26.7908 101.191L11.212 94.625H8.06641Z" fill="#FFAEFE"/>
<path d="M8.24433 106.514L11.7946 107.805L5.69603 94.625H2.73828L8.24433 106.514Z" fill="#FFAEFE"/>
<path d="M31.2666 112.996C32.8563 113.574 33.2127 113.324 33.2127 111.633C33.2127 111.074 32.784 110.462 32.2589 110.27L24.1805 107.331C22.5908 106.753 22.2344 107.004 22.2344 108.695C22.2344 109.253 22.6631 109.865 23.1882 110.058L31.2666 112.996Z" stroke="#0500FF" stroke-width="0.384315" stroke-linecap="round" stroke-linejoin="round"/>
<path d="M43.4502 117.428C45.0399 118.006 45.3963 117.756 45.3963 116.065C45.3963 115.506 44.9676 114.894 44.4425 114.701L36.3641 111.763C34.7744 111.185 34.418 111.435 34.418 113.126C34.418 113.685 34.8467 114.297 35.3718 114.489L43.4502 117.428Z" stroke="#0500FF" stroke-width="0.384315" stroke-linecap="round" stroke-linejoin="round"/>
<path d="M205.801 121.509V130.883C205.324 131.186 204.741 131.475 204.028 131.735L148.65 151.891C147.185 152.425 145.403 152.772 143.52 152.946V112.818H166.247L190.126 121.509H205.806H205.801Z" fill="#FFAEFE"/>
<path d="M17.5915 94.6213L59.0627 79.5291C63.3885 77.9539 70.4698 77.9539 74.7956 79.5291L190.129 121.506H207.283V128.867C207.283 129.902 206.199 130.943 204.036 131.728L148.658 151.883C144.332 153.458 137.25 153.458 132.925 151.883L3.68428 104.848C1.52137 104.063 0.4375 103.022 0.4375 101.987V94.6261H17.5915V94.6213Z" stroke="#0500FF" stroke-width="0.384315" stroke-linecap="round" stroke-linejoin="round"/>
<path d="M202.547 124.044C206.382 122.647 206.382 120.363 202.547 118.966L73.8995 72.1434C70.0651 70.7465 63.7883 70.7465 59.949 72.1434L5.17274 92.0818C1.33825 93.4788 1.33825 95.7621 5.17274 97.1591L133.821 143.982C137.655 145.379 143.932 145.379 147.771 143.982L202.552 124.044H202.547Z" fill="#2D9FFF" stroke="#0500FF" stroke-width="0.384315" stroke-linecap="round" stroke-linejoin="round"/>
<path d="M202.557 124.047C202.557 124.047 202.581 124.037 202.596 124.032L175.672 117.712L167.512 121.286L113.068 107.615L106.965 110.973L172.729 134.909L202.557 124.051V124.047Z" fill="#0500FF"/>
<path d="M204.033 118.645L74.7884 71.6052C70.4625 70.03 63.3813 70.03 59.0554 71.6052L3.68187 91.7604C-0.643958 93.3356 -0.643958 95.9128 3.68187 97.488L132.927 144.528C137.253 146.103 144.334 146.103 148.66 144.528L204.038 124.373C208.364 122.797 208.364 120.22 204.038 118.645H204.033ZM202.545 124.045L147.764 143.983C143.929 145.38 137.653 145.38 133.813 143.983L5.17039 97.1604C1.33591 95.7634 1.33591 93.4801 5.17039 92.0831L59.9514 72.1448C63.7859 70.7478 70.0627 70.7478 73.902 72.1448L202.55 118.968C206.384 120.365 206.384 122.648 202.55 124.045H202.545Z" fill="#1B1B1C" stroke="#1B1B1C" stroke-width="0.384315" stroke-linecap="round" stroke-linejoin="round"/>
<path d="M134.974 115.696L135.887 115.295L135.485 114.382L134.573 114.783L134.974 115.696Z" fill="white"/>
<path d="M77.9632 117.723L79.1406 117.205L78.623 116.028L77.4456 116.545L77.9632 117.723Z" fill="white"/>
<path d="M70.7967 95.2636L71.3516 95.584L71.6719 95.0291L71.1171 94.7088L70.7967 95.2636Z" fill="white"/>
<path d="M78.7828 94.3211L79.1875 94.5547L79.4211 94.15L79.0165 93.9164L78.7828 94.3211Z" fill="white"/>
<path d="M93.8258 86.7195L94.2305 86.9531L94.4641 86.5485L94.0594 86.3148L93.8258 86.7195Z" fill="white"/>
<path d="M59.3571 82.405L59.7617 82.6387L59.9954 82.234L59.5907 82.0004L59.3571 82.405Z" fill="white"/>
<path d="M82.7164 96.5847L83.1211 96.8184L83.3547 96.4137L82.9501 96.1801L82.7164 96.5847Z" fill="white"/>
<path d="M61.2516 99.9929L61.6562 100.227L61.8899 99.8219L61.4852 99.5883L61.2516 99.9929Z" fill="white"/>
<path d="M112.748 125.278L113.152 125.512L113.386 125.107L112.981 124.873L112.748 125.278Z" fill="white"/>
<path d="M102.634 123.356L103.039 123.59L103.273 123.185L102.868 122.952L102.634 123.356Z" fill="white"/>
<path d="M133.377 129.798L133.781 130.031L134.015 129.627L133.61 129.393L133.377 129.798Z" fill="white"/>
<path d="M122.279 121.067L122.684 121.301L122.917 120.896L122.513 120.662L122.279 121.067Z" fill="white"/>
<path d="M148.65 135.542L149.055 135.775L149.288 135.371L148.884 135.137L148.65 135.542Z" fill="white"/>
<path d="M84.1379 120.018L84.9453 120.26L85.1876 119.452L84.3801 119.21L84.1379 120.018Z" fill="white"/>
<path d="M120.712 132.285L121.52 132.527L121.762 131.72L120.954 131.478L120.712 132.285Z" fill="white"/>
<path d="M117.267 120.689L118.074 120.932L118.316 120.124L117.509 119.882L117.267 120.689Z" fill="white"/>
<path d="M85.9386 94.9902L86.7461 95.2324L86.9883 94.425L86.1809 94.1827L85.9386 94.9902Z" fill="white"/>
<path d="M98.8683 93.9941L99.6758 94.2363L99.918 93.4289L99.1106 93.1866L98.8683 93.9941Z" fill="white"/>
<path d="M49.5715 104.551L50.3789 104.793L50.6212 103.986L49.8137 103.743L49.5715 104.551Z" fill="white"/>
<path d="M69.3488 104.459L70.1562 104.701L70.3985 103.894L69.591 103.651L69.3488 104.459Z" fill="white"/>
<path d="M132.165 118.533L132.973 118.775L133.215 117.968L132.407 117.726L132.165 118.533Z" fill="white"/>
<path d="M123.958 95.6601L124.766 95.9023L125.008 95.0949L124.2 94.8526L123.958 95.6601Z" fill="white"/>
<path d="M76.8359 19.7148V107.614C76.8359 113.202 89.2836 117.73 104.636 117.73C119.988 117.73 132.436 113.202 132.436 107.614V19.7148H76.8408H76.8359Z" fill="url(#paint0_linear_993_22973)"/>
<path d="M104.625 120.255C123.815 120.255 139.372 114.594 139.372 107.61C139.372 100.626 123.815 94.9648 104.625 94.9648C85.4354 94.9648 69.8789 100.626 69.8789 107.61C69.8789 114.594 85.4354 120.255 104.625 120.255Z" stroke="white" stroke-width="0.384315" stroke-linecap="round" stroke-linejoin="round"/>
<path d="M84.6542 100.581C79.8178 102.402 76.8359 104.878 76.8359 107.609C76.8359 113.197 89.2836 117.725 104.636 117.725C112.141 117.725 118.953 116.641 123.953 114.878L84.6591 100.576L84.6542 100.581Z" fill="#48FF91"/>
<path d="M84.6484 100.582L123.942 114.884" stroke="#F4F4F7" stroke-width="0.384315" stroke-linecap="round" stroke-linejoin="round"/>
<path d="M180.683 113.24C181.627 113.24 182.292 112.474 182.166 111.54C181.94 109.859 180.538 107.821 179.05 107.012L166.111 99.9449L160.609 78.0508L159.044 78.9612C157.103 80.0933 155.946 82.8053 156.476 84.9875L163.336 113.236H180.683V113.24Z" fill="#1B1B1C"/>
<path d="M159.846 82.3223L153.29 85.439C150.708 86.6674 149.07 89.9575 149.653 92.7563L153.531 111.495C154.109 114.294 156.782 117.382 159.466 118.36L177.699 124.998C178.585 125.32 179.799 124.988 180.401 124.261C181.779 122.594 181.707 119.925 180.242 118.336L176.634 114.419L167.505 110.816V98.3201L159.851 82.3223H159.846Z" fill="#1B1B1C"/>
<path d="M173.405 113.242L167.504 110.814V98.3184" stroke="#0500FF" stroke-width="0.384315" stroke-linecap="round" stroke-linejoin="round"/>
<path d="M98.9702 100.298C97.3709 100.265 96.3304 101.522 96.6579 103.087V103.097C97.1878 105.607 98.8498 107.726 101.157 108.844C104.067 110.251 108.32 111.797 112.559 111.537L155.408 108.892C155.408 108.892 163.636 110.448 169.494 109.528L182.722 107.447C184.398 107.182 187.028 107.534 188.575 108.227L196.234 111.662C197.747 112.341 198.566 115.651 197.756 121.055L195.377 136.918L196.167 143.407C196.571 146.712 199.587 149.857 202.867 150.402L204.799 150.72C206.577 151.014 208.031 149.78 208.031 147.979V140.787L216.36 121.778L230.253 102.813C231.775 100.732 233.548 96.9888 234.189 94.4935L236.005 87.4123C236.92 83.8475 240.682 80.962 244.363 81.0054H264.473C264.473 77.9901 264.531 75.9714 264.473 73.0859L264.792 46.707L217.43 49.6455C212.791 49.9345 205.7 52.0686 201.668 54.3904L160.616 78.0428L158.723 88.5828L155.861 90.0665L136.265 93.4241L130.017 96.9503L109.674 100.515L98.9702 100.293V100.298Z" fill="#1B1B1C"/>
<path d="M153.031 109.035L155.406 108.89C155.406 108.89 163.634 110.446 169.492 109.526L180.157 107.85" stroke="#0500FF" stroke-width="0.384315" stroke-linecap="round" stroke-linejoin="round"/>
<path d="M159.771 88.0488L157.916 89.0123C156.789 89.6 154.838 90.2551 153.581 90.4671L149.559 91.1559" stroke="#0500FF" stroke-width="0.384315" stroke-linecap="round" stroke-linejoin="round"/>
<path d="M162.166 86.7988L160.895 87.4588" stroke="#0500FF" stroke-width="0.384315" stroke-linecap="round" stroke-linejoin="round"/>
<path d="M163.717 78.834L162.445 79.4939" stroke="#0500FF" stroke-width="0.384315" stroke-linecap="round" stroke-linejoin="round"/>
<path d="M105.915 100.789C105.752 101.574 104.966 102.258 104.167 102.311L98.4922 102.682" stroke="#0500FF" stroke-width="0.384315" stroke-linecap="round" stroke-linejoin="round"/>
<path d="M208.031 147.988C208.031 147.988 204.866 149.149 200.824 147.338L201.735 142.082C201.918 141.032 202.934 140.261 203.999 140.372L208.036 140.796" fill="#1B1B1C"/>
<path d="M208.031 147.988C208.031 147.988 204.866 149.149 200.824 147.338L201.735 142.082C201.918 141.032 202.934 140.261 203.999 140.372L208.036 140.796" stroke="#0500FF" stroke-width="0.384315" stroke-linecap="round" stroke-linejoin="round"/>
<path d="M160.534 81.9941L156.348 83.9836" stroke="#0500FF" stroke-width="0.384315" stroke-linecap="round" stroke-linejoin="round"/>
<path d="M128.108 52.9183C136.258 43.8889 132.346 27.0749 119.371 15.3632C106.396 3.65142 89.2704 1.47695 81.1203 10.5063C72.9702 19.5357 76.8818 36.3497 89.8571 48.0614C102.832 59.7732 119.958 61.9477 128.108 52.9183Z" fill="#1B1B1C"/>
<path d="M121.664 57.2352C120.936 56.4837 120.175 55.7419 119.38 55.0241C109.226 45.857 96.5275 42.5332 87.582 45.8522" stroke="#0500FF" stroke-width="0.384315" stroke-linecap="round" stroke-linejoin="round"/>
<path d="M79.0703 33.0068C79.6387 31.9856 80.3228 31.027 81.1176 30.1454C89.2683 21.118 106.393 23.2906 119.366 35.0011C124.361 39.51 128.013 44.7752 130.147 50.0597" stroke="#0500FF" stroke-width="0.384315" stroke-linecap="round" stroke-linejoin="round"/>
<path d="M78.8867 13.6973V32.5614" stroke="#0500FF" stroke-width="0.384315" stroke-linecap="round" stroke-linejoin="round"/>
<path d="M83.3203 8.49414V40.7356" stroke="#0500FF" stroke-width="0.384315" stroke-linecap="round" stroke-linejoin="round"/>
<path d="M129.887 50.5324V29.7559" stroke="#0500FF" stroke-width="0.384315" stroke-linecap="round" stroke-linejoin="round"/>
<path d="M123.594 56.3813V19.7129" stroke="#0500FF" stroke-width="0.384315" stroke-linecap="round" stroke-linejoin="round"/>
<path d="M94.6172 4.93945V51.8203" stroke="#0500FF" stroke-width="0.384315" stroke-linecap="round" stroke-linejoin="round"/>
<path d="M111.895 9.89062V58.3901" stroke="#0500FF" stroke-width="0.384315" stroke-linecap="round" stroke-linejoin="round"/>
<path d="M128.108 52.9183C136.258 43.8889 132.346 27.0749 119.371 15.3632C106.396 3.65142 89.2704 1.47695 81.1203 10.5063C72.9702 19.5357 76.8818 36.3497 89.8571 48.0614C102.832 59.7732 119.958 61.9477 128.108 52.9183Z" stroke="#1B1B1C" stroke-width="0.384315" stroke-linecap="round" stroke-linejoin="round"/>
<mask id="mask0_993_22973" style="mask-type:luminance" maskUnits="userSpaceOnUse" x="76" y="0" width="60" height="59">
<path d="M81.1411 10.5063C72.9904 19.5337 76.902 36.3505 89.8747 48.0611C102.847 59.7717 119.972 61.9442 128.123 52.9168C136.274 43.8894 139.786 18.0693 126.808 6.35871C113.835 -5.35187 89.287 1.47408 81.1363 10.5063H81.1411Z" fill="white"/>
</mask>
<g mask="url(#mask0_993_22973)">
<path d="M103.828 46.5964L96.1016 43.6628L117.138 8.94531L124.86 11.879L103.828 46.5964Z" fill="#48FF91" stroke="#0500FF" stroke-width="0.384315" stroke-linecap="round" stroke-linejoin="round"/>
<path d="M106.274 26.8791L117.074 24.7402L115.73 26.9513L104.93 29.095L106.274 26.8791Z" fill="#0500FF" stroke="#0500FF" stroke-width="0.384315" stroke-linecap="round" stroke-linejoin="round"/>
<path d="M103.949 30.7101L96.1016 43.6635L103.828 46.5971L114.749 28.5664L103.949 30.7101Z" fill="#0500FF" stroke="#0500FF" stroke-width="0.384315" stroke-linecap="round" stroke-linejoin="round"/>
<path d="M124.864 11.8789L129.238 16.2096L103.596 58.5285L91.25 46.2929L95.8601 38.6962L103.832 46.5964L124.864 11.8789Z" fill="#48FF91" stroke="#0500FF" stroke-width="0.384315" stroke-linecap="round" stroke-linejoin="round"/>
<path d="M103.592 58.5278L95.8651 55.5941L83.5234 43.3633L91.2454 46.2921L103.592 58.5278Z" fill="#1B1B1C" stroke="#0500FF" stroke-width="0.384315" stroke-linecap="round" stroke-linejoin="round"/>
<path d="M91.2454 46.2921L83.5234 43.3632L88.1287 35.7617L95.8554 38.6954L91.2454 46.2921Z" fill="#48FF91" stroke="#0500FF" stroke-width="0.384315" stroke-linecap="round" stroke-linejoin="round"/>
</g>
<path d="M81.1294 10.5078C72.9787 19.5352 76.8903 36.352 89.863 48.0626C102.836 59.7732 119.961 61.9457 128.111 52.9183" stroke="#1B1B1C" stroke-width="0.384315" stroke-linecap="round" stroke-linejoin="round"/>
</g>
<defs>
<linearGradient id="paint0_linear_993_22973" x1="104.631" y1="27.3694" x2="104.631" y2="105.152" gradientUnits="userSpaceOnUse">
<stop stop-color="#48FF91" stop-opacity="0"/>
<stop offset="0.14" stop-color="#48FF91" stop-opacity="0.03"/>
<stop offset="0.36" stop-color="#48FF91" stop-opacity="0.12"/>
<stop offset="0.64" stop-color="#48FF91" stop-opacity="0.27"/>
<stop offset="0.95" stop-color="#48FF91" stop-opacity="0.47"/>
<stop offset="1" stop-color="#48FF91" stop-opacity="0.5"/>
</linearGradient>
<clipPath id="clip0_993_22973">
<rect width="269.565" height="153.162" fill="white" transform="translate(0.207031 0.146484)"/>
</clipPath>
</defs>
</svg>
