<svg width="301" height="247" viewBox="0 0 301 247" fill="none" xmlns="http://www.w3.org/2000/svg">
<path d="M226.218 163.02C267.071 116.974 281.003 62.6244 257.337 41.627C233.67 20.6296 181.367 40.9358 140.513 86.9821C99.6604 133.029 85.7279 187.378 109.394 208.376C133.061 229.373 185.365 209.067 226.218 163.02Z" fill="#1B1B1C"/>
<path d="M197.718 142.91L198.417 142.602L198.11 141.902L197.41 142.21L197.718 142.91Z" fill="white"/>
<path d="M216.708 56.0399L217.407 55.7324L217.1 55.0328L216.4 55.3404L216.708 56.0399Z" fill="white"/>
<path d="M143.758 154.53L144.657 154.134L144.262 153.235L143.362 153.63L143.758 154.53Z" fill="white"/>
<path d="M117.805 168.316L118.231 168.562L118.476 168.136L118.051 167.89L117.805 168.316Z" fill="white"/>
<path d="M155.817 134.473L156.125 134.65L156.302 134.343L155.995 134.166L155.817 134.473Z" fill="white"/>
<path d="M183.127 127.429L183.434 127.606L183.611 127.299L183.304 127.121L183.127 127.429Z" fill="white"/>
<path d="M148.546 129.004L148.854 129.182L149.031 128.874L148.724 128.697L148.546 129.004Z" fill="white"/>
<path d="M157.482 138.513L157.79 138.69L157.967 138.383L157.66 138.205L157.482 138.513Z" fill="white"/>
<path d="M143.225 138.004L143.532 138.182L143.71 137.874L143.403 137.697L143.225 138.004Z" fill="white"/>
<path d="M172.232 153.816L172.54 153.994L172.717 153.686L172.41 153.509L172.232 153.816Z" fill="white"/>
<path d="M169.154 152.474L169.461 152.652L169.638 152.345L169.331 152.167L169.154 152.474Z" fill="white"/>
<path d="M206.75 145.914L207.057 146.091L207.235 145.784L206.927 145.607L206.75 145.914Z" fill="white"/>
<path d="M192.375 146.369L192.683 146.546L192.86 146.239L192.553 146.061L192.375 146.369Z" fill="white"/>
<path d="M204.85 160.064L205.158 160.242L205.335 159.934L205.028 159.757L204.85 160.064Z" fill="white"/>
<path d="M156.03 150.466L156.647 150.651L156.833 150.033L156.215 149.848L156.03 150.466Z" fill="white"/>
<path d="M181.753 158.776L182.371 158.961L182.556 158.343L181.939 158.158L181.753 158.776Z" fill="white"/>
<path d="M178.089 147.577L178.707 147.762L178.892 147.145L178.274 146.959L178.089 147.577Z" fill="white"/>
<path d="M161.85 124.841L162.468 125.026L162.653 124.408L162.036 124.223L161.85 124.841Z" fill="white"/>
<path d="M176.267 119.293L176.885 119.479L177.07 118.861L176.452 118.676L176.267 119.293Z" fill="white"/>
<path d="M130.349 139.749L130.966 139.935L131.151 139.317L130.534 139.132L130.349 139.749Z" fill="white"/>
<path d="M146.31 145.087L146.928 145.272L147.113 144.654L146.496 144.469L146.31 145.087Z" fill="white"/>
<path d="M206.732 135.442L207.523 136.025L208.106 135.234L207.315 134.651L206.732 135.442Z" fill="white"/>
<path d="M218.702 125.845L218.701 126.336L219.192 126.337L219.194 125.846L218.702 125.845Z" fill="white"/>
<path d="M232.673 135.29L232.672 135.645L233.026 135.646L233.027 135.291L232.673 135.29Z" fill="white"/>
<path d="M204.056 116.772L204.055 117.126L204.41 117.127L204.411 116.773L204.056 116.772Z" fill="white"/>
<path d="M197.805 139.73L197.804 140.085L198.159 140.086L198.16 139.731L197.805 139.73Z" fill="white"/>
<path d="M144.954 96.5217L144.953 96.8765L145.308 96.8775L145.309 96.5227L144.954 96.5217Z" fill="white"/>
<path d="M232.46 138.463L232.606 139.091L233.234 138.945L233.087 138.317L232.46 138.463Z" fill="white"/>
<path d="M220.917 136.56L221.063 137.188L221.691 137.041L221.545 136.414L220.917 136.56Z" fill="white"/>
<path d="M202.618 146.164L203.236 146.349L203.421 145.732L202.804 145.546L202.618 146.164Z" fill="white"/>
<path d="M173.857 111.011L174.475 111.196L174.66 110.578L174.042 110.393L173.857 111.011Z" fill="white"/>
<mask id="mask0_3130_99546" style="mask-type:luminance" maskUnits="userSpaceOnUse" x="97" y="33" width="172" height="184">
<path d="M226.217 163.02C267.07 116.974 281.003 62.6244 257.336 41.627C233.67 20.6296 181.366 40.9358 140.513 86.9821C99.6597 133.029 85.7273 187.378 109.394 208.376C133.06 229.373 185.364 209.067 226.217 163.02Z" fill="white"/>
</mask>
<g mask="url(#mask0_3130_99546)">
<path d="M257.828 246.091C266.124 225.245 238.521 194.685 196.175 177.833C153.829 160.982 112.776 164.22 104.481 185.067C96.1848 205.913 123.788 236.473 166.133 253.325C208.479 270.176 249.532 266.938 257.828 246.091Z" fill="url(#paint0_radial_3130_99546)"/>
</g>
<path d="M252.871 125.376C254.202 122.094 256.508 116.662 257.426 113.507C262.649 95.5587 261.093 80.0327 251.565 71.5755C233.47 55.5174 193.473 71.0433 162.23 106.254C130.987 141.464 120.329 183.024 138.428 199.082C147.82 207.413 163.107 207.242 180.008 200.228C183.272 198.874 188.646 195.834 191.999 193.978" stroke="#48FF91" stroke-width="0.349367" stroke-linecap="round" stroke-linejoin="round"/>
<path d="M191.999 193.979C182.02 197.09 173.195 196.483 167.473 191.403C154.69 180.059 162.22 150.7 184.289 125.83C206.358 100.956 234.613 89.9879 247.399 101.331C253.12 106.408 254.775 115.097 252.875 125.376" stroke="#48FF91" stroke-width="0.349367" stroke-linecap="round" stroke-linejoin="round"/>
<path d="M197.236 190.117C195.21 189.653 193.419 188.776 191.935 187.459C183.215 179.722 188.349 159.693 203.404 142.724C218.46 125.755 237.735 118.273 246.458 126.01C247.939 127.324 249.02 128.996 249.723 130.944" stroke="#48FF91" stroke-width="0.349367" stroke-linecap="round" stroke-linejoin="round"/>
<path d="M204.587 184.208C203.424 176.457 207.992 164.967 216.981 154.838C225.964 144.713 236.826 138.811 244.659 139.04" stroke="#48FF91" stroke-width="0.349367" stroke-linecap="round" stroke-linejoin="round"/>
<path d="M248.378 133.178C237.25 78.8732 257.344 41.6431 257.344 41.6431" stroke="#48FF91" stroke-width="0.349367" stroke-linecap="round" stroke-linejoin="round"/>
<path d="M162.254 65.7319C162.254 65.7319 179.039 101.393 229.867 151.853L233.105 154.882" stroke="#48FF91" stroke-width="0.349367" stroke-linecap="round" stroke-linejoin="round"/>
<path d="M126.692 159.153C130.141 159.276 131.444 160.968 130.755 164.622C131.444 160.968 132.864 159.334 136.292 159.59C132.86 159.334 132.389 157.437 133.495 154.148C132.389 157.437 130.203 159.276 126.692 159.153Z" fill="#48FF91" stroke="#48FF91" stroke-width="0.349367" stroke-linecap="round" stroke-linejoin="round"/>
<path d="M209.292 136.75C212.004 134.434 213.768 135.113 216.108 137.695C213.771 135.109 213.403 133.277 216.187 131.199C213.403 133.277 211.394 132.704 209.077 130.04C211.394 132.701 212.001 134.434 209.292 136.75Z" fill="#48FF91" stroke="#48FF91" stroke-width="0.349367" stroke-linecap="round" stroke-linejoin="round"/>
<path d="M209.596 37.6416C209.596 37.6416 203.585 85.584 239.236 138.596L242.18 142.724" stroke="#48FF91" stroke-width="0.349367" stroke-linecap="round" stroke-linejoin="round"/>
<path d="M199.212 188.588C143.969 184 109.393 208.382 109.393 208.382" stroke="#48FF91" stroke-width="0.349367" stroke-linecap="round" stroke-linejoin="round"/>
<path d="M121.995 111.102C121.995 111.102 159.399 123.523 215.549 167.986L218.941 170.842" stroke="#48FF91" stroke-width="0.349367" stroke-linecap="round" stroke-linejoin="round"/>
<path d="M99.7404 161.45C99.7404 161.45 146.625 149.779 203.502 178.866L207.954 181.298" stroke="#48FF91" stroke-width="0.349367" stroke-linecap="round" stroke-linejoin="round"/>
<path d="M197.236 190.116C168.333 195.36 157.143 212.383 157.143 212.383" stroke="#48FF91" stroke-width="0.349367" stroke-linecap="round" stroke-linejoin="round"/>
<path d="M249.719 130.947C251.302 101.618 266.732 88.0908 266.732 88.0908" stroke="#48FF91" stroke-width="0.349367" stroke-linecap="round" stroke-linejoin="round"/>
<path d="M196.643 75.3421C197.073 74.2845 198.254 72.9779 199.267 72.4457L216.441 63.3744C217.45 62.8388 218.972 63.0298 219.821 63.7974L235.839 78.2999C236.685 79.0675 237.026 80.5617 236.596 81.6227L229.268 99.6118C228.838 100.669 227.658 101.976 226.645 102.508L209.467 111.579C208.458 112.115 206.936 111.924 206.087 111.156L190.069 96.654C189.223 95.8864 188.882 94.3921 189.312 93.3311L196.64 75.3421H196.643Z" fill="url(#paint1_linear_3130_99546)" stroke="#0500FF" stroke-width="0.349367" stroke-miterlimit="10"/>
<path d="M236.592 81.6261C237.022 80.5685 236.547 80.1386 235.538 80.6708L218.364 89.7421C217.354 90.2777 216.174 91.5809 215.74 92.6385L208.412 110.628C207.983 111.685 208.457 112.115 209.467 111.583L226.64 102.512C227.65 101.976 228.831 100.673 229.264 99.6151L236.592 81.6261Z" fill="#FFF465" stroke="#0500FF" stroke-width="0.349367" stroke-linecap="round" stroke-linejoin="round"/>
<path d="M203.588 98.1143L204.649 98.742L202.674 103.597C203.029 102.645 202.288 101.297 202.619 100.502L203.588 98.1143Z" fill="#0500FF" stroke="#0500FF" stroke-width="0.349367" stroke-miterlimit="10"/>
<path d="M209.828 102.931C209.794 103.027 209.736 103.098 209.648 103.143C208.204 103.876 204.54 99.2877 203.053 100.048C202.831 100.161 202.695 100.318 202.616 100.502L209.644 83.2466L214.628 91.1375L209.828 102.931Z" fill="#FFF465" stroke="#0500FF" stroke-width="0.349367" stroke-miterlimit="10"/>
<path d="M206.544 94.2147C205.981 95.5963 210.307 101.594 209.829 102.928L217.656 83.7071L211.597 81.6841L206.544 94.2113V94.2147Z" fill="#0500FF" stroke="#0500FF" stroke-width="0.349367" stroke-linecap="round" stroke-linejoin="round"/>
<path d="M211.595 81.6909L206.543 94.2181C206.584 94.1158 206.655 94.0373 206.758 93.9895C208.368 93.239 213.366 98.445 214.84 97.8207C215.034 97.7388 215.157 97.6058 215.229 97.4386L218.367 89.0769L211.599 81.6909H211.595Z" fill="#FFF465" stroke="#0500FF" stroke-width="0.349367" stroke-linecap="round" stroke-linejoin="round"/>
<path d="M217.286 91.3733L215.478 92.2875C213.547 93.2632 215.706 96.2586 215.225 97.439L217.559 91.2266L217.286 91.3767V91.3733Z" fill="#0500FF" stroke="#0500FF" stroke-width="0.349367" stroke-miterlimit="10"/>
<path d="M199.802 105.436L201.982 104.33C202.354 104.143 202.566 103.89 202.671 103.6" stroke="#0500FF" stroke-width="0.349367" stroke-miterlimit="10"/>
<path d="M214.783 93.0102L218.918 82.8574" stroke="#0500FF" stroke-width="0.349367" stroke-miterlimit="10"/>
<path d="M215.225 97.4354L218.364 89.0737" stroke="#0500FF" stroke-width="0.349367" stroke-miterlimit="10"/>
<path d="M190.073 96.654C189.226 95.8864 189.359 94.822 190.369 94.2864L207.543 85.2151C208.553 84.6795 210.074 84.8705 210.924 85.6381L226.941 100.144C227.787 100.912 227.654 101.976 226.644 102.512C227.654 101.976 228.834 100.673 229.268 99.6152L236.596 81.6261C237.026 80.5686 236.688 79.0709 235.838 78.3033L219.821 63.8008C218.975 63.0332 217.454 62.8422 216.44 63.3778L199.267 72.4491C198.257 72.9847 197.076 74.2879 196.643 75.3455L189.315 93.3346C188.885 94.3921 189.223 95.8898 190.073 96.6574V96.654Z" fill="#F4F4F7" stroke="#0500FF" stroke-width="0.349367" stroke-linecap="round" stroke-linejoin="round"/>
<path d="M226.941 100.144C227.787 100.912 228.835 100.673 229.268 99.6155L236.596 81.6265C237.026 80.5689 236.688 79.0712 235.839 78.3036L219.821 63.7978C218.975 63.0302 217.928 63.269 217.495 64.3265L210.167 82.3156C209.737 83.3732 210.075 84.8709 210.924 85.6384L226.941 100.144Z" fill="#F4F4F7" stroke="#0500FF" stroke-width="0.349367" stroke-miterlimit="10"/>
<path d="M217.494 64.3336C217.924 63.276 217.45 62.8461 216.44 63.3783L199.266 72.4496C198.256 72.9853 197.076 74.2885 196.643 75.346L189.315 93.3351C188.885 94.3927 189.359 94.8225 190.369 94.2903L207.542 85.219C208.552 84.6834 209.733 83.3802 210.166 82.3227L217.494 64.3336Z" fill="#2D9FFF" stroke="#0500FF" stroke-width="0.349367" stroke-linecap="round" stroke-linejoin="round"/>
<path d="M163.59 130.483C163.873 129.787 164.647 128.934 165.312 128.582L176.584 122.629C177.249 122.278 178.246 122.404 178.802 122.909L189.313 132.427C189.869 132.932 190.094 133.911 189.811 134.607L185.004 146.411C184.721 147.107 183.946 147.96 183.281 148.311L172.009 154.265C171.344 154.616 170.348 154.49 169.792 153.985L159.281 144.467C158.725 143.962 158.5 142.983 158.783 142.287L163.59 130.483Z" stroke="#48FF91" stroke-width="0.349367" stroke-linecap="round" stroke-linejoin="round"/>
<path d="M159.278 144.467C158.722 143.962 158.811 143.262 159.473 142.914L170.744 136.961C171.41 136.61 172.406 136.736 172.962 137.241L183.473 146.759C184.029 147.264 183.94 147.963 183.278 148.311C183.944 147.96 184.718 147.107 185.001 146.411L189.808 134.607C190.091 133.911 189.866 132.932 189.31 132.427L178.799 122.909C178.243 122.404 177.243 122.281 176.582 122.629L165.31 128.582C164.645 128.934 163.87 129.787 163.587 130.483L158.78 142.287C158.497 142.983 158.722 143.962 159.278 144.467Z" stroke="#48FF91" stroke-width="0.349367" stroke-linecap="round" stroke-linejoin="round"/>
<path d="M183.473 146.759C184.029 147.264 184.715 147.107 184.998 146.411L189.805 134.607C190.088 133.911 189.863 132.932 189.307 132.427L178.796 122.909C178.24 122.404 177.554 122.561 177.271 123.257L172.464 135.061C172.181 135.757 172.406 136.736 172.962 137.241L183.473 146.759Z" stroke="#48FF91" stroke-width="0.349367" stroke-miterlimit="10"/>
<path d="M177.276 123.257C177.559 122.561 177.248 122.281 176.583 122.629L165.311 128.582C164.646 128.934 163.872 129.786 163.588 130.482L158.782 142.286C158.498 142.982 158.809 143.262 159.474 142.914L170.746 136.961C171.411 136.61 172.186 135.757 172.469 135.061L177.276 123.257Z" stroke="#48FF91" stroke-width="0.349367" stroke-linecap="round" stroke-linejoin="round"/>
<path d="M174.207 146.762C178.842 146.762 182.599 143.004 182.599 138.369C182.599 133.734 178.842 129.977 174.207 129.977C169.572 129.977 165.814 133.734 165.814 138.369C165.814 143.004 169.572 146.762 174.207 146.762Z" fill="#48FF91"/>
<path d="M257.223 41.7576C268.982 52.1904 271.431 70.9412 265.805 92.887C260.182 114.823 246.501 139.898 226.089 162.905C205.677 185.911 182.41 202.481 161.3 210.677C140.18 218.876 121.271 218.678 109.512 208.245C97.7533 197.812 95.3045 179.061 100.93 157.116C106.553 135.18 120.234 110.105 140.646 87.0981C161.058 64.0913 184.325 47.5217 205.435 39.326C226.555 31.1266 245.464 31.3248 257.223 41.7576Z" stroke="#0500FF" stroke-width="0.349367"/>
<path d="M151.353 161.944C151.783 160.886 152.963 159.579 153.976 159.047L171.15 149.976C172.16 149.44 173.681 149.631 174.531 150.399L190.548 164.901C191.394 165.669 191.735 167.163 191.305 168.224L183.977 186.213C183.547 187.271 182.367 188.578 181.354 189.11L164.177 198.181C163.167 198.717 161.645 198.526 160.796 197.758L144.779 183.256C143.933 182.488 143.591 180.994 144.021 179.933L151.349 161.944H151.353Z" fill="#0500FF" stroke="#0500FF" stroke-width="0.349367" stroke-linecap="round" stroke-linejoin="round"/>
<path d="M191.305 168.228C191.735 167.17 191.261 166.74 190.251 167.272L173.078 176.344C172.068 176.879 170.887 178.182 170.454 179.24L163.126 197.229C162.696 198.287 163.17 198.717 164.18 198.184L181.354 189.113C182.364 188.577 183.544 187.274 183.977 186.217L191.305 168.228Z" fill="#2D9FFF" stroke="#0500FF" stroke-width="0.349367" stroke-linecap="round" stroke-linejoin="round"/>
<path d="M163.838 191.856L153.31 182.324L157.52 180.1L168.044 189.635L163.838 191.856Z" fill="#48FF91" stroke="#0500FF" stroke-width="0.349367" stroke-miterlimit="10"/>
<path d="M168.043 189.635L157.519 180.1L161.991 169.118L172.516 178.653L168.043 189.635Z" fill="#2D9FFF" stroke="#0500FF" stroke-width="0.349367" stroke-miterlimit="10"/>
<path d="M153.31 182.324L157.52 180.1L161.992 169.118L157.786 171.342L153.31 182.324Z" fill="#48FF91" stroke="#0500FF" stroke-width="0.349367" stroke-miterlimit="10"/>
<path d="M169.788 188.714L159.26 179.178L163.466 176.958L173.994 186.489L169.788 188.714Z" fill="#48FF91" stroke="#0500FF" stroke-width="0.349367" stroke-miterlimit="10"/>
<path d="M173.995 186.49L163.467 176.958L167.939 165.976L178.467 175.508L173.995 186.49Z" fill="#2D9FFF" stroke="#0500FF" stroke-width="0.349367" stroke-miterlimit="10"/>
<path d="M159.259 179.179L163.466 176.958L167.938 165.976L163.732 168.197L159.259 179.179Z" fill="#48FF91" stroke="#0500FF" stroke-width="0.349367" stroke-miterlimit="10"/>
<path d="M175.781 185.459L165.253 175.927L169.459 173.706L179.987 183.238L175.781 185.459Z" fill="#48FF91" stroke="#0500FF" stroke-width="0.349367" stroke-miterlimit="10"/>
<path d="M179.988 183.238L169.46 173.706L173.936 162.725L184.461 172.256L179.988 183.238Z" fill="#48FF91" stroke="#0500FF" stroke-width="0.349367" stroke-miterlimit="10"/>
<path d="M165.253 175.927L169.459 173.706L173.935 162.725L169.729 164.946L165.253 175.927Z" fill="#48FF91" stroke="#0500FF" stroke-width="0.349367" stroke-miterlimit="10"/>
<path d="M144.782 183.256C143.936 182.488 144.069 181.424 145.079 180.888L162.252 171.817C163.262 171.281 164.784 171.472 165.633 172.24L181.651 186.746C182.497 187.513 182.364 188.578 181.354 189.113C182.364 188.578 183.544 187.274 183.977 186.217L191.305 168.228C191.735 167.17 191.397 165.672 190.548 164.905L174.531 150.402C173.685 149.635 172.163 149.444 171.15 149.979L153.976 159.051C152.966 159.586 151.786 160.889 151.353 161.947L144.025 179.936C143.595 180.994 143.932 182.491 144.782 183.259V183.256Z" fill="#F4F4F7" stroke="#0500FF" stroke-width="0.349367" stroke-linecap="round" stroke-linejoin="round"/>
<path d="M181.654 186.746C182.5 187.513 183.547 187.275 183.98 186.217L191.308 168.228C191.738 167.17 191.4 165.673 190.551 164.905L174.534 150.399C173.688 149.632 172.64 149.871 172.207 150.928L164.879 168.917C164.449 169.975 164.787 171.472 165.636 172.24L181.654 186.746Z" fill="#F4F4F7" stroke="#0500FF" stroke-width="0.349367" stroke-miterlimit="10"/>
<path d="M172.203 150.932C172.633 149.874 172.159 149.444 171.149 149.976L153.975 159.048C152.966 159.583 151.785 160.887 151.352 161.944L144.024 179.933C143.594 180.991 144.068 181.421 145.078 180.888L162.252 171.817C163.262 171.282 164.442 169.978 164.875 168.921L172.203 150.932Z" fill="#2D9FFF" stroke="#0500FF" stroke-width="0.349367" stroke-linecap="round" stroke-linejoin="round"/>
<path d="M150.397 164.288L144.024 179.933C143.594 180.991 144.068 181.42 145.078 180.888L155.449 175.409L150.397 164.288Z" fill="#1B1B1C"/>
<path d="M150.397 164.288L144.024 179.933C143.594 180.991 144.068 181.42 145.078 180.888L155.449 175.409" stroke="#0500FF" stroke-width="0.349367" stroke-miterlimit="10"/>
<path d="M174.971 163.38L176.137 160.507L173.627 158.235L172.46 161.104L174.971 163.38Z" fill="#1B1B1C"/>
<path d="M176.311 168.524L177.478 165.652L174.97 163.38L173.8 166.249L176.311 168.524Z" fill="#1B1B1C"/>
<path d="M178.822 170.796L179.989 167.927L177.478 165.652L176.311 168.524L178.822 170.796Z" fill="#1B1B1C"/>
<path d="M179.989 167.928L181.159 165.055L178.648 162.783L177.478 165.652L179.989 167.928Z" fill="#1B1B1C"/>
<path d="M177.652 173.666L178.823 170.797L176.312 168.525L175.141 171.394L177.652 173.666Z" fill="#1B1B1C"/>
<path d="M181.33 173.069L182.5 170.2L179.989 167.928L178.822 170.797L181.33 173.069Z" fill="#1B1B1C"/>
<path d="M182.673 178.213L183.84 175.344L181.329 173.069L180.162 175.941L182.673 178.213Z" fill="#1B1B1C"/>
<mask id="mask1_3130_99546" style="mask-type:luminance" maskUnits="userSpaceOnUse" x="97" y="33" width="172" height="184">
<path d="M257.221 41.7576C268.98 52.1904 271.429 70.9412 265.803 92.887C260.18 114.823 246.499 139.898 226.087 162.905C205.675 185.911 182.408 202.481 161.298 210.677C140.178 218.876 121.269 218.678 109.51 208.245C97.7513 197.812 95.3024 179.061 100.928 157.116C106.551 135.18 120.232 110.105 140.644 87.0981C161.056 64.0913 184.323 47.5217 205.433 39.326C226.553 31.1266 245.462 31.3248 257.221 41.7576Z" fill="white" stroke="white" stroke-width="0.349367"/>
</mask>
<g mask="url(#mask1_3130_99546)">
<path d="M226.58 91.0688C227.058 89.8953 228.364 88.4522 229.487 87.8586L248.516 77.8082C249.635 77.218 251.321 77.4295 252.262 78.279L270.009 94.3507C270.947 95.2002 271.326 96.8582 270.848 98.0318L262.729 117.962C262.251 119.136 260.945 120.579 259.822 121.172L240.793 131.223C239.674 131.813 237.988 131.601 237.047 130.752L219.3 114.68C218.362 113.831 217.983 112.173 218.461 110.999L226.58 91.0688Z" fill="#0500FF" stroke="#0500FF" stroke-width="0.349367" stroke-linecap="round" stroke-linejoin="round"/>
<path d="M270.848 98.0317C271.326 96.8581 270.8 96.3805 269.681 96.9741L250.652 107.024C249.533 107.615 248.223 109.061 247.745 110.235L239.626 130.165C239.148 131.339 239.674 131.816 240.793 131.223L259.822 121.172C260.941 120.582 262.251 119.135 262.729 117.962L270.848 98.0317Z" fill="#2D9FFF" stroke="#0500FF" stroke-width="0.349367" stroke-linecap="round" stroke-linejoin="round"/>
<path d="M253.658 103.862C247.801 99.6517 238.682 98.5293 233.285 101.357C227.887 104.186 228.263 109.89 234.117 114.1C239.971 118.309 249.09 119.428 254.487 116.604C259.881 113.775 259.509 108.071 253.655 103.862H253.658Z" fill="url(#paint2_linear_3130_99546)"/>
<path d="M234.693 101.9C239.418 99.4232 247.418 100.406 252.545 104.094C257.676 107.781 258 112.783 253.275 115.26C248.547 117.736 240.55 116.754 235.423 113.066C230.292 109.378 229.964 104.377 234.693 101.9Z" fill="url(#paint3_linear_3130_99546)"/>
<path d="M258.165 112.35L257.755 114.093C257.36 115.768 256.142 117.266 254.081 118.347C248.684 121.175 239.565 120.053 233.711 115.843C230.091 113.24 228.566 110.067 229.204 107.355L229.613 105.612C228.976 108.324 230.5 111.497 234.12 114.1C239.974 118.31 249.093 119.429 254.49 116.604C256.551 115.526 257.769 114.025 258.165 112.35Z" fill="#2D9FFF"/>
<path d="M245.645 118.101L245.236 119.845C248.511 120.084 251.67 119.609 254.082 118.344C256.143 117.266 257.361 115.765 257.756 114.089L258.166 112.346C257.77 114.021 256.552 115.519 254.492 116.6C252.08 117.866 248.924 118.337 245.645 118.101Z" fill="#1B1B1C"/>
<path d="M241.625 117.464C240.865 117.276 240.111 117.051 239.37 116.788L238.961 118.531C239.701 118.791 240.455 119.019 241.216 119.207L241.625 117.464Z" fill="#1B1B1C"/>
<path d="M256.61 110.637C256.542 112.462 255.44 114.127 253.274 115.26C252.629 115.598 251.923 115.867 251.172 116.079L252.005 117.563C252.895 117.317 253.731 117 254.492 116.604C256.907 115.338 258.163 113.496 258.292 111.47L256.61 110.637Z" fill="#48FF91"/>
<path d="M249.632 116.42C248.977 116.526 248.302 116.59 247.609 116.614L247.968 118.15C248.752 118.122 249.516 118.051 250.257 117.935L249.632 116.417V116.42Z" fill="#F4F4F7"/>
<path d="M258.165 112.35L257.755 114.093C257.36 115.768 256.142 117.266 254.081 118.347C248.684 121.175 239.565 120.053 233.711 115.843C230.091 113.24 228.566 110.067 229.204 107.355L229.613 105.612C228.976 108.324 230.5 111.497 234.12 114.1C239.974 118.31 249.093 119.429 254.49 116.604C256.551 115.526 257.769 114.025 258.165 112.35Z" stroke="#0500FF" stroke-width="0.349367" stroke-linecap="round" stroke-linejoin="round"/>
<path d="M253.658 103.862C247.801 99.6517 238.682 98.5293 233.285 101.357C227.887 104.186 228.263 109.89 234.117 114.1C239.971 118.309 249.09 119.428 254.487 116.604C259.881 113.775 259.509 108.071 253.655 103.862H253.658Z" stroke="#0500FF" stroke-width="0.349367" stroke-linecap="round" stroke-linejoin="round"/>
<path d="M252.546 104.093C247.415 100.405 239.418 99.4227 234.693 101.899C231.483 103.581 230.606 106.423 231.974 109.231L256.411 109.019C255.937 107.334 254.644 105.604 252.546 104.093Z" fill="#0500FF"/>
<path d="M219.3 114.68C218.362 113.831 218.508 112.65 219.631 112.057L238.66 102.006C239.779 101.416 241.465 101.628 242.406 102.477L260.153 118.549C261.091 119.398 260.945 120.579 259.822 121.172C260.941 120.582 262.251 119.136 262.729 117.962L270.848 98.0318C271.326 96.8582 270.947 95.2036 270.009 94.3507L252.262 78.279C251.324 77.4295 249.639 77.218 248.516 77.8082L229.487 87.8586C228.368 88.4488 227.058 89.8953 226.58 91.0688L218.461 110.999C217.983 112.173 218.362 113.827 219.3 114.68Z" fill="#F4F4F7" stroke="#0500FF" stroke-width="0.349367" stroke-linecap="round" stroke-linejoin="round"/>
<path d="M260.154 118.549C261.092 119.399 262.252 119.136 262.73 117.962L270.849 98.0321C271.327 96.8585 270.948 95.2039 270.01 94.351L252.263 78.2792C251.325 77.4297 250.165 77.6924 249.687 78.866L241.568 98.7962C241.09 99.9698 241.469 101.624 242.407 102.477L260.154 118.549Z" fill="#F4F4F7" stroke="#0500FF" stroke-width="0.349367" stroke-miterlimit="10"/>
<path d="M249.687 78.8656C250.165 77.6921 249.639 77.2145 248.52 77.8081L229.491 87.8585C228.372 88.4487 227.062 89.8952 226.584 91.0687L218.465 110.999C217.987 112.173 218.512 112.65 219.631 112.057L238.661 102.006C239.78 101.416 241.09 99.9694 241.567 98.7959L249.687 78.8656Z" fill="#2D9FFF" stroke="#0500FF" stroke-width="0.349367" stroke-linecap="round" stroke-linejoin="round"/>
<path d="M232.845 140.419C232.295 139.921 231.313 139.799 230.658 140.143L219.54 146.014C218.885 146.359 218.12 147.205 217.841 147.891L213.099 159.534C212.819 160.22 213.041 161.189 213.59 161.684L222.566 169.813L240.947 147.758L232.845 140.419Z" fill="#0500FF" stroke="#0500FF" stroke-width="0.349367" stroke-linecap="round" stroke-linejoin="round"/>
<path d="M232.845 140.419C232.295 139.921 231.313 139.799 230.658 140.143L219.54 146.014C218.885 146.359 218.12 147.205 217.841 147.891L213.099 159.534C212.819 160.22 213.041 161.189 213.59 161.684C213.041 161.186 213.129 160.496 213.781 160.152L224.899 154.281C225.554 153.936 226.537 154.059 227.086 154.557L231.756 158.787L240.947 147.761L232.845 140.423V140.419Z" fill="#F4F4F7" stroke="#0500FF" stroke-width="0.349367" stroke-linecap="round" stroke-linejoin="round"/>
<path d="M232.845 140.42C232.296 139.922 231.62 140.079 231.34 140.764L226.598 152.408C226.319 153.094 226.54 154.063 227.09 154.557L231.76 158.788L240.951 147.761L232.848 140.423L232.845 140.42Z" fill="#F4F4F7" stroke="#0500FF" stroke-width="0.349367" stroke-miterlimit="10"/>
<path d="M226.599 152.404L231.342 140.76C231.621 140.075 231.314 139.798 230.659 140.143L219.541 146.014C218.886 146.359 218.122 147.205 217.842 147.891L213.1 159.534C212.82 160.22 213.127 160.496 213.782 160.152L224.901 154.28C225.556 153.936 226.32 153.09 226.599 152.404Z" fill="#2D9FFF" stroke="#0500FF" stroke-width="0.349367" stroke-linecap="round" stroke-linejoin="round"/>
<path d="M235.705 35.3854C235.984 34.6997 236.749 33.857 237.404 33.5091L248.522 27.6378C249.177 27.2932 250.159 27.416 250.709 27.9141L261.076 37.3027C261.626 37.8008 261.844 38.7662 261.568 39.452L256.826 51.0956C256.546 51.7813 255.782 52.6239 255.127 52.9719L244.008 58.8432C243.353 59.1877 242.371 59.0649 241.822 58.5668L231.454 49.1783C230.905 48.6802 230.686 47.7147 230.963 47.029L235.705 35.3854Z" fill="#48FF91" stroke="#0500FF" stroke-width="0.349367" stroke-linecap="round" stroke-linejoin="round"/>
<path d="M231.45 49.1783C230.901 48.6802 230.989 47.991 231.641 47.6465L242.759 41.7752C243.414 41.4307 244.397 41.5535 244.946 42.0516L255.314 51.4401C255.863 51.9382 255.774 52.6273 255.123 52.9719C255.778 52.6273 256.542 51.7813 256.822 51.0956L261.564 39.452C261.843 38.7662 261.622 37.7974 261.072 37.3027L250.705 27.9141C250.155 27.416 249.173 27.2932 248.518 27.6378L237.4 33.5091C236.745 33.8536 235.98 34.6997 235.701 35.3854L230.959 47.029C230.679 47.7147 230.901 48.6836 231.45 49.1783Z" fill="#F4F4F7" stroke="#0500FF" stroke-width="0.349367" stroke-linecap="round" stroke-linejoin="round"/>
<path d="M255.317 51.4405C255.867 51.9385 256.542 51.7816 256.822 51.0959L261.564 39.4523C261.844 38.7666 261.622 37.7977 261.073 37.303L250.705 27.9145C250.156 27.4164 249.48 27.5733 249.201 28.259L244.459 39.9026C244.179 40.5883 244.401 41.5572 244.95 42.0519L255.317 51.4405Z" fill="#F4F4F7" stroke="#0500FF" stroke-width="0.349367" stroke-miterlimit="10"/>
<path d="M249.199 28.2585C249.479 27.5727 249.172 27.2964 248.517 27.641L237.398 33.5122C236.743 33.8568 235.979 34.7029 235.699 35.3886L230.957 47.0322C230.678 47.7179 230.985 47.9942 231.64 47.6497L242.758 41.7784C243.413 41.4338 244.177 40.5878 244.457 39.902L249.199 28.2585Z" fill="#2D9FFF" stroke="#0500FF" stroke-width="0.349367" stroke-linecap="round" stroke-linejoin="round"/>
</g>
<path d="M91.4881 125.685C91.9657 124.511 93.2723 123.068 94.3947 122.474L113.424 112.424C114.543 111.834 116.229 112.045 117.17 112.895L134.917 128.966C135.855 129.816 136.234 131.474 135.756 132.648L127.637 152.578C127.159 153.751 125.853 155.194 124.73 155.788L105.701 165.838C104.582 166.429 102.896 166.217 101.955 165.368L84.2079 149.296C83.2697 148.446 82.891 146.788 83.3686 145.615L91.4881 125.685Z" fill="url(#paint4_linear_3130_99546)" stroke="#0500FF" stroke-width="0.349367" stroke-miterlimit="10"/>
<path d="M135.758 132.648C136.235 131.474 135.71 130.997 134.591 131.59L115.561 141.641C114.442 142.231 113.132 143.677 112.655 144.851L104.535 164.781C104.058 165.955 104.583 166.432 105.702 165.839L124.732 155.788C125.851 155.198 127.161 153.752 127.638 152.578L135.758 132.648Z" fill="#48FF91" stroke="#0500FF" stroke-width="0.349367" stroke-linecap="round" stroke-linejoin="round"/>
<path d="M110.483 154.051C118.263 154.051 124.569 147.745 124.569 139.965C124.569 132.186 118.263 125.879 110.483 125.879C102.703 125.879 96.3967 132.186 96.3967 139.965C96.3967 147.745 102.703 154.051 110.483 154.051Z" fill="#48FF91" stroke="#0500FF" stroke-width="0.349367" stroke-linecap="round" stroke-linejoin="round"/>
<path d="M118.975 148.411C123.686 143.674 125.718 138.056 123.513 135.864C121.309 133.672 115.703 135.735 110.992 140.473C106.281 145.21 104.249 150.828 106.453 153.02C108.658 155.212 114.264 153.149 118.975 148.411Z" fill="#48FF91" stroke="#0500FF" stroke-width="0.349367" stroke-linecap="round" stroke-linejoin="round"/>
<path d="M115.131 144.603C120.616 139.086 122.983 132.545 120.416 129.993C117.85 127.441 111.322 129.844 105.837 135.36C100.351 140.877 97.9846 147.418 100.551 149.97C103.118 152.522 109.645 150.119 115.131 144.603Z" fill="#48FF91" stroke="#0500FF" stroke-width="0.349367" stroke-linecap="round" stroke-linejoin="round"/>
<path d="M109.995 139.463C114.706 134.726 116.738 129.108 114.533 126.916C112.329 124.724 106.723 126.788 102.012 131.525C97.3008 136.263 95.2687 141.88 97.4731 144.072C99.6775 146.264 105.284 144.201 109.995 139.463Z" fill="#48FF91" stroke="#0500FF" stroke-width="0.349367" stroke-linecap="round" stroke-linejoin="round"/>
<path d="M100.494 130.035C96.3288 134.224 95.3429 140.379 97.5297 145.499C97.0316 141.747 102.811 140.327 108.201 141.068C112.227 141.617 119.367 145.175 122.727 146.939C125.801 141.549 125.03 134.565 120.418 129.98C114.901 124.494 105.98 124.522 100.494 130.038V130.035Z" fill="#0500FF" stroke="#0500FF" stroke-width="0.349367" stroke-miterlimit="10"/>
<path d="M110.456 139.863L120.476 149.9" stroke="#0500FF" stroke-width="0.349367" stroke-linecap="round" stroke-linejoin="round"/>
<path d="M84.2079 149.296C83.2697 148.446 83.4164 147.266 84.5388 146.672L103.568 136.622C104.687 136.032 106.373 136.243 107.314 137.093L125.061 153.165C125.999 154.014 125.853 155.194 124.73 155.788C125.849 155.198 127.159 153.751 127.637 152.578L135.756 132.648C136.234 131.474 135.855 129.819 134.917 128.966L117.17 112.895C116.232 112.045 114.547 111.834 113.424 112.424L94.3947 122.474C93.2757 123.064 91.9657 124.511 91.4881 125.685L83.3686 145.615C82.891 146.788 83.2697 148.443 84.2079 149.296Z" fill="#F4F4F7" stroke="#0500FF" stroke-width="0.349367" stroke-linecap="round" stroke-linejoin="round"/>
<path d="M125.062 153.165C126 154.015 127.16 153.752 127.638 152.578L135.757 132.648C136.235 131.475 135.856 129.82 134.918 128.967L117.171 112.895C116.233 112.046 115.073 112.309 114.596 113.482L106.476 133.412C105.998 134.586 106.377 136.241 107.315 137.094L125.062 153.165Z" fill="#F4F4F7" stroke="#0500FF" stroke-width="0.349367" stroke-miterlimit="10"/>
<path d="M114.595 113.482C115.073 112.308 114.547 111.831 113.428 112.424L94.3986 122.475C93.2796 123.065 91.9696 124.511 91.4919 125.685L83.3725 145.615C82.8949 146.789 83.4202 147.266 84.5392 146.673L103.569 136.622C104.688 136.032 105.998 134.586 106.475 133.412L114.595 113.482Z" fill="#2D9FFF" stroke="#0500FF" stroke-width="0.349367" stroke-linecap="round" stroke-linejoin="round"/>
<path d="M117.17 112.895C116.231 112.045 114.546 111.834 113.424 112.424L94.3941 122.474C93.2751 123.064 91.9651 124.511 91.4875 125.685L86.2747 138.485L110.486 123.569L121.775 129.076C122.307 129.335 123.188 129.352 123.73 129.11L131.334 125.719L117.173 112.895H117.17Z" fill="#1B1B1C" stroke="#0500FF" stroke-width="0.349367" stroke-linecap="round" stroke-linejoin="round"/>
<path d="M72.041 30.5723L100.923 5.82159C102.025 4.87659 103.809 4.90389 104.881 5.883C105.539 6.48343 106.023 7.70135 105.955 8.59176C105.815 10.4476 104.604 13.0268 103.267 14.3232L79.4543 37.3818L72.041 30.5723Z" fill="#1B1B1C" stroke="#1B1B1C" stroke-width="0.349367" stroke-linecap="round" stroke-linejoin="round"/>
<path d="M77.7905 31.3496L96.6222 12.6476L121.237 1.36901C122.673 0.710581 124.324 1.37583 124.901 2.84621C126.153 6.03259 124.716 9.97974 121.707 11.6173L105.772 20.2894L92.6137 34.6588L77.7905 31.3496Z" fill="#1B1B1C" stroke="#1B1B1C" stroke-width="0.349367" stroke-linecap="round" stroke-linejoin="round"/>
<path d="M83.2344 33.1271L86.4651 31.8614C89.3683 30.7254 92.043 31.5339 95.84 28.1156L110.704 15.8135C112.969 13.9372 117.23 12.4395 120.171 12.4839C121.505 12.5043 123.668 12.2894 124.975 12.0097L139.654 8.84717L151.823 8.93246C153.577 8.9461 154.901 10.3858 154.764 12.1325L154.71 12.8455C154.611 14.1351 153.778 15.9364 152.861 16.8506C150.551 19.1466 146.051 21.5381 142.855 22.1624L122.921 26.0789L105.699 43.372L83.2378 33.1305L83.2344 33.1271Z" fill="#1B1B1C" stroke="#1B1B1C" stroke-width="0.349367" stroke-linecap="round" stroke-linejoin="round"/>
<path d="M114.448 56.0149L131.922 48.3424L138.605 52.1565C142.399 54.3228 146.383 53.9851 146.383 53.9851L150.467 57.2295C155.833 61.4939 161.053 61.4222 164.915 58.9693L167.368 57.4137C169.364 56.148 169.558 53.8213 167.798 52.2418L146.772 33.3998L144.026 29.4629C142.18 26.819 138.148 25.4202 135.061 26.3584L118.654 31.3427" fill="#1B1B1C"/>
<path d="M114.448 56.0149L131.922 48.3424L138.605 52.1565C142.399 54.3228 146.383 53.9851 146.383 53.9851L150.467 57.2295C155.833 61.4939 161.053 61.4222 164.915 58.9693L167.368 57.4137C169.364 56.148 169.558 53.8213 167.798 52.2418L146.772 33.3998L144.026 29.4629C142.18 26.819 138.148 25.4202 135.061 26.3584L118.654 31.3427" stroke="#1B1B1C" stroke-width="0.349367" stroke-linecap="round" stroke-linejoin="round"/>
<path d="M126.983 68.5903C127.46 67.4167 128.767 65.9737 129.889 65.3801L148.919 55.3296C150.038 54.7394 151.723 54.951 152.665 55.8004L170.412 71.8722C171.35 72.7217 171.729 74.3797 171.251 75.5533L163.131 95.4835C162.654 96.6571 161.347 98.1002 160.225 98.6938L141.195 108.744C140.076 109.334 138.391 109.123 137.449 108.273L119.702 92.2016C118.764 91.3521 118.386 89.6941 118.863 88.5205L126.983 68.5903Z" fill="url(#paint5_linear_3130_99546)" stroke="#0500FF" stroke-width="0.349367" stroke-miterlimit="10"/>
<path d="M171.251 75.5531C171.728 74.3796 171.203 73.902 170.084 74.4956L151.054 84.546C149.935 85.1362 148.625 86.5827 148.148 87.7562L140.028 107.686C139.551 108.86 140.076 109.338 141.195 108.744L160.225 98.6936C161.344 98.1034 162.654 96.6569 163.131 95.4834L171.251 75.5531Z" fill="#FFAEFE" stroke="#0500FF" stroke-width="0.349367" stroke-linecap="round" stroke-linejoin="round"/>
<path d="M156.469 92.6281C161.47 87.1048 163.886 81.1415 161.863 79.3095L148.346 67.0688L130.231 87.0741L143.748 99.3148C145.771 101.147 151.464 98.1548 156.469 92.6281Z" fill="#FFF465" stroke="#0500FF" stroke-width="0.349367" stroke-linecap="round" stroke-linejoin="round"/>
<path d="M133.589 83.3662L131.331 85.86L146.601 99.687C147.594 99.4414 148.733 98.9263 149.955 98.186L133.589 83.3662Z" fill="#FFAEFE"/>
<path d="M142.952 80.3832C147.953 74.8594 150.367 68.896 148.344 67.0635C146.32 65.231 140.625 68.2235 135.623 73.7473C130.621 79.2711 128.207 85.2345 130.231 87.067C132.255 88.8995 137.95 85.907 142.952 80.3832Z" fill="#FFAEFE" stroke="#0500FF" stroke-width="0.349367" stroke-linecap="round" stroke-linejoin="round"/>
<path d="M143.747 99.3149C145.77 101.147 151.464 98.1549 156.469 92.6282C161.47 87.1049 163.885 81.1416 161.862 79.3096" stroke="#0500FF" stroke-width="0.349367" stroke-linecap="round" stroke-linejoin="round"/>
<path d="M139.242 95.2348C141.265 97.0668 146.959 94.0749 151.964 88.5482C156.965 83.0249 159.381 77.0615 157.357 75.2295" stroke="#0500FF" stroke-width="0.349367" stroke-linecap="round" stroke-linejoin="round"/>
<path d="M134.737 91.1508C136.76 92.9828 142.454 89.9909 147.459 84.4642C152.46 78.9409 154.876 72.9775 152.852 71.1455" stroke="#0500FF" stroke-width="0.349367" stroke-linecap="round" stroke-linejoin="round"/>
<path d="M119.705 92.2016C118.767 91.3521 118.914 90.1717 120.036 89.5781L139.066 79.5277C140.185 78.9375 141.87 79.149 142.811 79.9985L160.558 96.0703C161.496 96.9198 161.35 98.1002 160.227 98.6938C161.346 98.1036 162.656 96.6571 163.134 95.4835L171.253 75.5533C171.731 74.3797 171.352 72.7251 170.414 71.8722L152.667 55.8004C151.729 54.951 150.044 54.7394 148.921 55.3296L129.892 65.3801C128.773 65.9702 127.463 67.4167 126.985 68.5903L118.866 88.5205C118.388 89.6941 118.767 91.3487 119.705 92.2016Z" fill="#F4F4F7" stroke="#0500FF" stroke-width="0.349367" stroke-linecap="round" stroke-linejoin="round"/>
<path d="M160.557 96.0701C161.495 96.9195 162.655 96.6568 163.132 95.4833L171.252 75.553C171.729 74.3795 171.351 72.7249 170.413 71.872L152.666 55.8002C151.728 54.9507 150.568 55.2134 150.09 56.387L141.971 76.3172C141.493 77.4908 141.872 79.1454 142.81 79.9983L160.557 96.0701Z" fill="#F4F4F7" stroke="#0500FF" stroke-width="0.349367" stroke-miterlimit="10"/>
<path d="M161.776 73.5979C159.739 69.0912 155.771 66.4814 152.919 67.7709C150.067 69.0605 149.406 73.7616 151.446 78.2683C153.482 82.7749 157.45 85.3847 160.302 84.0952C163.154 82.8056 163.816 78.1045 161.776 73.5979ZM158.978 81.1715C157.146 82.0005 154.601 80.3254 153.295 77.4324C151.985 74.5394 152.411 71.5236 154.24 70.6946C156.072 69.8656 158.617 71.5407 159.923 74.4337C161.233 77.3267 160.807 80.3425 158.978 81.1715Z" stroke="#1B1B1C" stroke-width="0.349367" stroke-miterlimit="10"/>
<path d="M161.776 73.5979C159.739 69.0912 155.771 66.4814 152.919 67.7709C151.93 68.2179 151.21 69.081 150.77 70.2L152.861 72.2537C153.145 71.5373 153.605 70.9812 154.24 70.6946C156.072 69.8656 158.617 71.5407 159.923 74.4337C160.043 74.6998 160.145 74.9693 160.237 75.2354L162.26 74.8465C162.117 74.4303 161.96 74.0141 161.772 73.5979H161.776Z" fill="#1B1B1C"/>
<path d="M150.09 56.3871C150.567 55.2136 150.042 54.7359 148.923 55.3296L129.893 65.38C128.774 65.9702 127.464 67.4166 126.987 68.5902L118.867 88.5205C118.389 89.694 118.915 90.1716 120.034 89.578L139.063 79.5276C140.182 78.9374 141.492 77.4909 141.97 76.3174L150.09 56.3871Z" fill="#2D9FFF" stroke="#0500FF" stroke-width="0.349367" stroke-linecap="round" stroke-linejoin="round"/>
<path d="M138.014 101.3C134.548 98.963 128.929 97.4892 123.324 96.7182L106.031 94.3335C100.33 93.5455 97.6688 89.8951 97.1776 86.2925L95.9017 76.9244C95.6424 75.0242 97.1298 72.5167 98.7025 71.4182L108.924 64.2608C112.325 61.8795 114.447 56.0219 114.447 56.0219L118.653 31.3564C115.371 32.3526 109.879 33.3249 106.454 33.516L102.68 33.7241L72.0413 30.5786L35.7732 61.0983C31.8636 63.674 28.0222 66.9525 25.6955 69.8694L1.10168 100.662C1.10168 100.662 10.2071 97.5165 20.9739 105.407C38.789 118.463 40.8393 133.866 40.8393 133.866L49.9311 108.949C50.9785 106.076 54.3354 103.654 57.3922 103.565L62.9086 103.405C65.266 103.337 68.4763 104.599 70.5129 105.506L83.1118 111.105C86.0628 112.418 91.1187 113.636 94.3426 113.813L112.966 114.837C114.58 114.926 117.207 114.775 118.803 114.503L125.173 113.411C126.902 113.114 129.717 113.182 131.429 113.561L138.102 115.035C140.119 115.482 142.169 113.827 142.582 111.804L142.885 110.323C143.534 107.151 140.695 103.111 138.01 101.3H138.014Z" fill="#1B1B1C" stroke="#1B1B1C" stroke-width="0.349367" stroke-linecap="round" stroke-linejoin="round"/>
<path d="M146.978 52.7951L148.397 50.2944" stroke="#2D9FFF" stroke-width="0.349367" stroke-linecap="round" stroke-linejoin="round"/>
<path d="M131.921 48.3429C135.274 46.8691 137.106 42.4546 137.106 42.4546" stroke="#2D9FFF" stroke-width="0.349367" stroke-linecap="round" stroke-linejoin="round"/>
<path d="M113.887 47.9704L113.307 46.2544" stroke="#2D9FFF" stroke-width="0.349367" stroke-linecap="round" stroke-linejoin="round"/>
<path d="M114.657 55.0018C114.657 55.0018 115.152 52.6512 114.439 49.9731" stroke="#2D9FFF" stroke-width="0.349367" stroke-linecap="round" stroke-linejoin="round"/>
<path d="M139.726 114.584C140.695 113.145 141.725 110.494 140.135 106.735C139.89 106.151 139.293 105.8 138.662 105.865L132.787 106.472C131.948 106.557 131.163 107.315 131.051 108.154L130.406 112.875" stroke="#2D9FFF" stroke-width="0.349367" stroke-linecap="round" stroke-linejoin="round"/>
<path d="M116.694 109.593L116.23 113.902" stroke="#2D9FFF" stroke-width="0.349367" stroke-linecap="round" stroke-linejoin="round"/>
<path d="M114.161 110.668L113.827 113.762" stroke="#2D9FFF" stroke-width="0.349367" stroke-linecap="round" stroke-linejoin="round"/>
<path d="M99.4599 32.9839L97.4301 33.6491" stroke="#2D9FFF" stroke-width="0.349367" stroke-miterlimit="10"/>
<path d="M117.29 31.7319L111.214 32.9635C108.495 33.5162 105.37 31.0428 101.736 32.2368L100.907 32.5098" stroke="#2D9FFF" stroke-width="0.349367" stroke-miterlimit="10"/>
<path d="M75.0952 31.3906C76.6236 31.261 77.8108 31.3292 79.3358 29.8145L94.6945 14.5649C95.7555 13.5107 97.7342 12.1427 99.092 11.5184L106.075 8.31836" stroke="#2D9FFF" stroke-width="0.349367" stroke-miterlimit="10"/>
<path d="M69.9597 32.8023L71.3653 32.3247" stroke="#2D9FFF" stroke-width="0.349367" stroke-miterlimit="10"/>
<path d="M122.92 26.0754L123.691 25.3487C124.193 24.8745 124.606 23.9193 124.606 23.2302V22.292" stroke="#2D9FFF" stroke-width="0.349367" stroke-miterlimit="10"/>
<path d="M137.999 23.1142L138.596 21.2549" stroke="#2D9FFF" stroke-width="0.349367" stroke-miterlimit="10"/>
<path d="M144.738 8.87451L145.683 9.92527L153.762 10.7202" stroke="#2D9FFF" stroke-width="0.349367" stroke-miterlimit="10"/>
<path d="M116.697 3.44628L117.912 3.88978C118.417 4.074 119.252 4.11494 119.771 3.97848L124.189 2.8322C124.189 2.8322 123.64 1.36523 121.235 1.36523" stroke="#2D9FFF" stroke-width="0.349367" stroke-miterlimit="10"/>
<path d="M97.7781 8.5161L99.4361 8.90843C99.958 9.03124 100.77 8.92548 101.244 8.67303L104.935 6.69434" stroke="#2D9FFF" stroke-width="0.349367" stroke-miterlimit="10"/>
<path d="M85.8164 32.2367C88.3989 30.4934 91.906 31.3702 95.8395 28.1156L110.704 15.8135C112.969 13.9372 117.23 12.4395 120.171 12.4839" stroke="#2D9FFF" stroke-width="0.349367" stroke-miterlimit="10"/>
<path d="M83.9125 33.5194L84.8097 32.9155" stroke="#2D9FFF" stroke-width="0.349367" stroke-miterlimit="10"/>
<defs>
<radialGradient id="paint0_radial_3130_99546" cx="0" cy="0" r="1" gradientUnits="userSpaceOnUse" gradientTransform="translate(222.435 199.299) rotate(-142.95) scale(153.086 108.691)">
<stop offset="0.31" stop-color="#2D9FFF"/>
<stop offset="0.4" stop-color="#2B99FF"/>
<stop offset="0.51" stop-color="#278AFF"/>
<stop offset="0.64" stop-color="#2170FF"/>
<stop offset="0.77" stop-color="#184CFF"/>
<stop offset="0.91" stop-color="#0C1FFF"/>
<stop offset="1" stop-color="#0500FF"/>
</radialGradient>
<linearGradient id="paint1_linear_3130_99546" x1="189.128" y1="87.4803" x2="236.78" y2="87.4803" gradientUnits="userSpaceOnUse">
<stop stop-color="#FFAEFE"/>
<stop offset="1" stop-color="#FFF465"/>
</linearGradient>
<linearGradient id="paint2_linear_3130_99546" x1="237.879" y1="113.661" x2="247.565" y2="106.078" gradientUnits="userSpaceOnUse">
<stop stop-color="#47FD92"/>
<stop offset="0.22" stop-color="#3EDBB9"/>
<stop offset="0.42" stop-color="#36C1D7"/>
<stop offset="0.63" stop-color="#31AEED"/>
<stop offset="0.82" stop-color="#2EA2FA"/>
<stop offset="1" stop-color="#2D9FFF"/>
</linearGradient>
<linearGradient id="paint3_linear_3130_99546" x1="235.611" y1="114.512" x2="252.348" y2="102.604" gradientUnits="userSpaceOnUse">
<stop stop-color="#F4F4F7"/>
<stop offset="0.16" stop-color="#F0F4F4"/>
<stop offset="0.31" stop-color="#E4F5ED"/>
<stop offset="0.46" stop-color="#D0F6E2"/>
<stop offset="0.61" stop-color="#B5F8D1"/>
<stop offset="0.76" stop-color="#91FABC"/>
<stop offset="0.91" stop-color="#66FDA3"/>
<stop offset="1" stop-color="#48FF91"/>
</linearGradient>
<linearGradient id="paint4_linear_3130_99546" x1="87.8002" y1="141.094" x2="102.889" y2="139.733" gradientUnits="userSpaceOnUse">
<stop stop-color="#48FF91"/>
<stop offset="1" stop-color="#2D9FFF"/>
</linearGradient>
<linearGradient id="paint5_linear_3130_99546" x1="140.735" y1="93.0204" x2="135.914" y2="105.275" gradientUnits="userSpaceOnUse">
<stop stop-color="#FFAEFE"/>
<stop offset="1" stop-color="#FFF465"/>
</linearGradient>
</defs>
</svg>
