<!DOCTYPE svg PUBLIC "-//W3C//DTD SVG 1.1//EN" "http://www.w3.org/Graphics/SVG/1.1/DTD/svg11.dtd">
<!-- Uploaded to: SVG Repo, www.svgrepo.com, Transformed by: SVG Repo Mixer Tools -->
<svg height="800px" width="800px" version="1.1" id="Layer_1" xmlns="http://www.w3.org/2000/svg" xmlns:xlink="http://www.w3.org/1999/xlink" viewBox="0 0 512 512" xml:space="preserve" fill="#000000">
<g id="SVGRepo_bgCarrier" stroke-width="0"/>
<g id="SVGRepo_tracerCarrier" stroke-linecap="round" stroke-linejoin="round"/>
<g id="SVGRepo_iconCarrier"> <path style="fill:#154cf1;" d="M0,256.006C0,397.402,114.606,512.004,255.996,512C397.394,512.004,512,397.402,512,256.006 C512.009,114.61,397.394,0,255.996,0C114.606,0,0,114.614,0,256.006z"/> <path style="fill:#154cf1;" d="M512,256.005c0.002-33.669-6.56-65.787-18.371-95.233c-0.133-0.111-0.223-0.263-0.366-0.366 c-0.448-0.624-69.443-69.618-70.065-70.065c-0.757-1.057-1.698-1.974-2.919-2.479c-0.858-0.354-1.769-0.542-2.684-0.542h-70.283 c-3.882,0-7.028,3.145-7.028,7.028c0,2.356,1.233,4.337,3.01,5.612c0.447,0.622,28.039,28.217,28.662,28.665 c0.199,0.278,0.336,0.604,0.574,0.849L272.059,229.946c-1.162,1.162-1.723,2.644-1.901,4.159 c-0.354-0.324-102.375-102.449-102.958-102.931c-5.263-5.026-12.067-8.196-19.42-8.655c-8.919-0.461-17.604,2.757-23.905,9.066 l-25.629,25.69c-14.235,14.263-34.846,59.954,80.893,175.941c0.268,0.268,0.515,0.499,0.783,0.765 c0.279,0.282,0.53,0.547,0.811,0.828c0.246,0.247,0.477,0.459,0.721,0.704c0.3,0.301,0.569,0.588,0.869,0.889 c0.268,0.268,159.718,159.699,159.964,159.947c0.179,0.179,0.352,0.356,0.524,0.533C441.467,461.324,512,366.922,512,256.005z"/> <g> <path style="fill:#F6F6F6;" d="M377.502,342.042l-40.125-31.298c-11.325-8.833-27.098-8.771-38.364,0.138l-8.923,7.062 c-6.764,5.354-16.473,4.784-22.574-1.317l-71.769-71.923c-6.109-6.129-6.678-15.875-1.322-22.67l7.049-8.943 c8.889-11.27,8.946-27.063,0.138-38.402l-31.226-40.207c-5.47-7.049-13.71-11.407-22.605-11.963 c-8.919-0.46-17.605,2.759-23.906,9.067l-25.629,25.691c-14.235,14.262-34.846,59.953,80.894,175.94 c75.427,75.596,121.454,91.463,146.784,91.463h0.003c15.254,0,24.098-5.649,28.827-10.391l25.632-25.683 c6.294-6.307,9.588-15.031,9.033-23.94C388.868,355.769,384.523,347.519,377.502,342.042z M370.435,378.679l-25.632,25.683 c-2.848,2.855-8.438,6.259-18.878,6.259c-18.559,0-61.013-11.345-136.832-87.332c-87.339-87.524-98.162-138.788-80.894-156.091 l25.629-25.691c3.199-3.205,7.533-4.99,12.029-4.99c0.35,0,0.7,0.006,1.054,0.034c4.866,0.302,9.376,2.69,12.375,6.548 l31.229,40.207c4.832,6.225,4.801,14.894-0.076,21.078l-7.049,8.943c-9.76,12.382-8.727,30.138,2.405,41.298l71.772,71.93 c11.153,11.167,28.885,12.19,41.247,2.41l8.923-7.062c6.16-4.886,14.798-4.914,20.992-0.082l40.125,31.298 c3.854,3.006,6.236,7.536,6.538,12.416C375.697,370.429,373.888,375.213,370.435,378.679z"/> <path style="fill:#F6F6F6;" d="M424.081,91.664c-0.713-1.721-2.081-3.089-3.803-3.802c-0.858-0.355-1.77-0.542-2.684-0.542h-70.283 c-3.882,0-7.028,3.143-7.028,7.028s3.147,7.028,7.028,7.028h53.316L272.061,229.946c-2.746,2.746-2.746,7.193,0,9.938 c1.373,1.373,3.171,2.059,4.97,2.059s3.597-0.686,4.97-2.059l128.569-128.569v53.316c0,3.885,3.147,7.028,7.028,7.028 s7.028-3.143,7.028-7.028V94.349C424.623,93.435,424.436,92.523,424.081,91.664z"/> </g> </g>
</svg>